<?xml version="1.0" encoding="UTF-8" standalone="no"?>
<!-- Created with Inkscape (http://www.inkscape.org/) -->

<svg
   width="200"
   height="200"
   viewBox="0 0 52.916665 52.916666"
   version="1.1"
   id="svg1"
   xml:space="preserve"
   inkscape:version="1.3.2 (091e20e, 2023-11-25)"
   sodipodi:docname="logo.svg"
   inkscape:export-filename="logo.png"
   inkscape:export-xdpi="96"
   inkscape:export-ydpi="96"
   xmlns:inkscape="http://www.inkscape.org/namespaces/inkscape"
   xmlns:sodipodi="http://sodipodi.sourceforge.net/DTD/sodipodi-0.dtd"
   xmlns:xlink="http://www.w3.org/1999/xlink"
   xmlns="http://www.w3.org/2000/svg"
   xmlns:svg="http://www.w3.org/2000/svg"><sodipodi:namedview
     id="namedview1"
     pagecolor="#505050"
     bordercolor="#eeeeee"
     borderopacity="1"
     inkscape:showpageshadow="0"
     inkscape:pageopacity="0"
     inkscape:pagecheckerboard="0"
     inkscape:deskcolor="#d1d1d1"
     inkscape:document-units="px"
     inkscape:zoom="1.060115"
     inkscape:cx="100.4608"
     inkscape:cy="130.6462"
     inkscape:window-width="1536"
     inkscape:window-height="795"
     inkscape:window-x="0"
     inkscape:window-y="0"
     inkscape:window-maximized="1"
     inkscape:current-layer="layer4" /><defs
     id="defs1"><linearGradient
       id="linearGradient20"
       inkscape:collect="always"><stop
         style="stop-color:#1e40af;stop-opacity:1;"
         offset="0"
         id="stop21" /><stop
         style="stop-color:#0284c7;stop-opacity:1;"
         offset="1"
         id="stop22" /></linearGradient><rect
       x="26.951899"
       y="21.043746"
       width="155.49756"
       height="157.76197"
       id="rect1" /><clipPath
       clipPathUnits="userSpaceOnUse"
       id="clipPath3"><rect
         style="fill:#a40000;stroke:#000000;stroke-width:3.36023;stroke-opacity:1"
         id="rect3"
         width="161.30623"
         height="267.68658"
         x="-23.016191"
         y="-15.847721" /></clipPath><linearGradient
       inkscape:collect="always"
       xlink:href="#linearGradient20"
       id="linearGradient22"
       x1="-3.4344957"
       y1="25.743822"
       x2="57.114101"
       y2="25.743822"
       gradientUnits="userSpaceOnUse"
       gradientTransform="translate(-1.0959804,-52.583624)" /></defs><g
     inkscape:groupmode="layer"
     id="layer4"
     inkscape:label="bg"><rect
       style="fill:url(#linearGradient22);stroke:none;stroke-width:1.35955;stroke-opacity:1"
       id="rect11"
       width="60.548595"
       height="60.799625"
       x="-4.5304761"
       y="-57.239616"
       inkscape:label="bg-rect"
       transform="rotate(90)" /></g><g
     inkscape:label="letter"
     inkscape:groupmode="layer"
     id="layer1"
     transform="matrix(1.2038171,0,0,1.2038171,-6.5239365,0.15633389)"
     style="fill:#fcd34d;fill-opacity:1"><g
       id="g15"
       inkscape:label="wheat"
       style="display:inline;fill:#fcd34d;fill-opacity:1"
       transform="matrix(0.91740844,0,0,0.91740844,2.7475829,2.1679433)"><g
         id="g14"
         style="fill:#fcd34d;fill-opacity:1"
         inkscape:label="left"><path
           id="rect12"
           style="fill:#fcd34d;stroke-width:1.5875;fill-opacity:1"
           d="m 33.695908,5.5128078 h 1.434531 V 10.935614 L 33.695908,9.7986989 Z"
           sodipodi:nodetypes="ccccc" /><path
           id="rect13"
           style="fill:#fcd34d;stroke-width:1.5875;fill-opacity:1"
           d="m 33.780413,11.589331 c 0,0 1.566081,1.017749 2.435719,1.958058 1.198388,1.295775 0.799318,4.532352 0.799318,4.532352 0,0 -1.654412,-0.980186 -2.421648,-1.827897 -1.284991,-1.419773 -0.813389,-4.662513 -0.813389,-4.662513 z"
           sodipodi:nodetypes="cscsc" /><path
           id="rect13-5"
           style="fill:#fcd34d;stroke-width:1.5875;fill-opacity:1"
           d="m 33.828708,18.004534 c 0,0 1.566081,1.017749 2.435719,1.958058 1.198388,1.295775 0.799318,4.532352 0.799318,4.532352 0,0 -1.654412,-0.980186 -2.421648,-1.827897 -1.284991,-1.419773 -0.813389,-4.662513 -0.813389,-4.662513 z"
           sodipodi:nodetypes="cscsc" /><path
           id="rect13-5-6"
           style="fill:#fcd34d;stroke-width:1.5875;fill-opacity:1"
           d="m 33.756372,24.460059 c 0,0 1.566081,1.017749 2.435719,1.958058 1.198388,1.295775 0.799318,4.532352 0.799318,4.532352 0,0 -1.654412,-0.980186 -2.421648,-1.827897 -1.284991,-1.419773 -0.813389,-4.662513 -0.813389,-4.662513 z"
           sodipodi:nodetypes="cscsc" /><path
           id="rect13-5-6-6"
           style="fill:#fcd34d;stroke-width:1.5875;fill-opacity:1"
           d="m 33.779209,30.968524 c 0,0 1.566081,1.017749 2.435719,1.958058 1.198388,1.295775 0.799318,4.532352 0.799318,4.532352 0,0 -1.654412,-0.980186 -2.421648,-1.827897 -1.284991,-1.419773 -0.813389,-4.662513 -0.813389,-4.662513 z"
           sodipodi:nodetypes="cscsc" /></g><g
         id="g13"
         transform="translate(-0.74261957,-0.499209)"
         style="fill:#fcd34d;fill-opacity:1"
         inkscape:label="right"><path
           id="rect12-7"
           style="fill:#fcd34d;stroke-width:1.5875;fill-opacity:1"
           d="m 42.029657,6.0120168 h -1.434531 v 5.4228062 l 1.434531,-1.136915 z"
           sodipodi:nodetypes="ccccc" /><path
           id="rect13-2"
           style="fill:#fcd34d;stroke-width:1.5875;fill-opacity:1"
           d="m 41.945152,12.08854 c 0,0 -1.566081,1.017749 -2.435719,1.958058 -1.198388,1.295775 -0.799318,4.532352 -0.799318,4.532352 0,0 1.654412,-0.980186 2.421648,-1.827897 1.284991,-1.419773 0.813389,-4.662513 0.813389,-4.662513 z"
           sodipodi:nodetypes="cscsc" /><path
           id="rect13-5-4"
           style="fill:#fcd34d;stroke-width:1.5875;fill-opacity:1"
           d="m 41.896857,18.503743 c 0,0 -1.566081,1.017749 -2.435719,1.958058 -1.198388,1.295775 -0.799318,4.532352 -0.799318,4.532352 0,0 1.654412,-0.980186 2.421648,-1.827897 1.284991,-1.419773 0.813389,-4.662513 0.813389,-4.662513 z"
           sodipodi:nodetypes="cscsc" /><path
           id="rect13-5-6-0"
           style="fill:#fcd34d;stroke-width:1.5875;fill-opacity:1"
           d="m 41.969193,24.959268 c 0,0 -1.566081,1.017749 -2.435719,1.958058 -1.198388,1.295775 -0.799318,4.532352 -0.799318,4.532352 0,0 1.654412,-0.980186 2.421648,-1.827897 1.284991,-1.419773 0.813389,-4.662513 0.813389,-4.662513 z"
           sodipodi:nodetypes="cscsc" /><path
           id="rect13-5-6-6-6"
           style="fill:#fcd34d;stroke-width:1.5875;fill-opacity:1"
           d="m 41.946356,31.467733 c 0,0 -1.566081,1.017749 -2.435719,1.958058 -1.198388,1.295775 -0.799318,4.532352 -0.799318,4.532352 0,0 1.654412,-0.980186 2.421648,-1.827897 1.284991,-1.419773 0.813389,-4.662513 0.813389,-4.662513 z"
           sodipodi:nodetypes="cscsc" /></g><path
         id="rect13-2-3"
         style="fill:#fcd34d;stroke-width:1.5875;fill-opacity:1"
         d="m 37.561809,5.5128078 c 0,0 -1.489171,1.9586045 -1.466364,3.4243092 0.02281,1.465705 1.504002,3.332729 1.504002,3.332729 0,0 1.400987,-1.805793 1.390367,-3.3541516 -0.01062,-1.5483577 -1.428005,-3.4028866 -1.428005,-3.4028866 z"
         sodipodi:nodetypes="czczc"
         inkscape:label="middle" /></g><path
       inkscape:connector-curvature="0"
       style="color:#000000;display:inline;overflow:visible;visibility:visible;fill:#fcd34d;stroke:none;stroke-width:0.237292;marker:none;enable-background:accumulate;fill-opacity:1"
       d="m 31.603875,10.073655 c 0,-1.6066368 -1.302438,-2.9090744 -2.909075,-2.9090744 -8.033188,0 -14.545368,6.5121834 -14.545368,14.5453694 0,8.033186 6.51218,14.545369 14.545368,14.545369 1.606637,0 2.909075,-1.302438 2.909075,-2.909074 0,-1.606637 -1.302438,-2.909075 -2.909075,-2.909075 -4.81991,0 -8.72722,-3.90731 -8.72722,-8.72722 0,-4.81991 3.90731,-8.727221 8.72722,-8.727221 1.606637,0 2.909075,-1.302437 2.909075,-2.909074 z"
       id="path3112"
       inkscape:label="a-side" /></g></svg>
